<?xml version="1.0" encoding="UTF-8" standalone="no"?>
<!DOCTYPE svg PUBLIC "-//W3C//DTD SVG 1.1//EN" "http://www.w3.org/Graphics/SVG/1.1/DTD/svg11.dtd">
<svg width="100%" height="100%" viewBox="0 0 359 248" version="1.1" xmlns="http://www.w3.org/2000/svg" xmlns:xlink="http://www.w3.org/1999/xlink" xml:space="preserve" xmlns:serif="http://www.serif.com/" style="fill-rule:evenodd;clip-rule:evenodd;stroke-miterlimit:10;">
    <g transform="matrix(1,0,0,1,-2064.62,-358.45)">
        <g transform="matrix(1,0,0,1,2074.66,539.809)">
            <path d="M0,-30.678L80.978,-77.036L166.334,-23.617L44.103,46.358" style="fill:white;fill-rule:nonzero;stroke:black;stroke-width:2px;"/>
        </g>
        <g transform="matrix(1,0,0,1,2327.88,366.446)">
            <path d="M0,100.008L34.215,80.421C40.689,76.714 42.934,68.461 39.227,61.986L9.267,9.652C5.163,2.484 -3.975,0 -11.143,4.103L-85.013,46.392" style="fill:white;fill-rule:nonzero;stroke:black;stroke-width:2px;"/>
        </g>
        <g transform="matrix(-0.863513,0.504327,0.504327,0.863513,2084.44,523.736)">
            <path d="M-25.679,-6.95L1.881,-6.95" style="fill:none;fill-rule:nonzero;stroke:black;stroke-width:2px;"/>
        </g>
        <g transform="matrix(-0.863522,0.504311,0.504311,0.863522,2081.26,519.603)">
            <path d="M-25.68,-6.949L1.881,-6.95" style="fill:none;fill-rule:nonzero;stroke:black;stroke-width:2px;"/>
        </g>
        <g transform="matrix(-0.863522,0.504311,0.504311,0.863522,2090.63,533.946)">
            <path d="M-25.68,-6.949L1.881,-6.95" style="fill:none;fill-rule:nonzero;stroke:black;stroke-width:2px;"/>
        </g>
        <g transform="matrix(-0.863522,0.504311,0.504311,0.863522,2101.36,554.294)">
            <path d="M-25.68,-6.949L1.881,-6.95" style="fill:none;fill-rule:nonzero;stroke:black;stroke-width:2px;"/>
        </g>
        <g transform="matrix(-0.863522,0.504311,0.504311,0.863522,2095.1,545.739)">
            <path d="M-25.68,-6.949L1.881,-6.95" style="fill:none;fill-rule:nonzero;stroke:black;stroke-width:2px;"/>
        </g>
        <g transform="matrix(-0.863522,0.504311,0.504311,0.863522,2107.56,564.503)">
            <path d="M-25.68,-6.949L1.881,-6.95" style="fill:none;fill-rule:nonzero;stroke:black;stroke-width:2px;"/>
        </g>
        <g transform="matrix(-0.863522,0.504311,0.504311,0.863522,2112.17,572.988)">
            <path d="M-25.68,-6.949L1.881,-6.95" style="fill:none;fill-rule:nonzero;stroke:black;stroke-width:2px;"/>
        </g>
        <g transform="matrix(-0.863522,0.504311,0.504311,0.863522,2116.71,583.127)">
            <path d="M-25.68,-6.949L1.881,-6.95" style="fill:none;fill-rule:nonzero;stroke:black;stroke-width:2px;"/>
        </g>
        <g transform="matrix(-0.863522,0.504311,0.504311,0.863522,2087.54,528.841)">
            <path d="M-25.68,-6.949L1.881,-6.95" style="fill:none;fill-rule:nonzero;stroke:black;stroke-width:2px;"/>
        </g>
        <g transform="matrix(-0.863522,0.504311,0.504311,0.863522,2093.73,539.05)">
            <path d="M-25.68,-6.949L1.881,-6.95" style="fill:none;fill-rule:nonzero;stroke:black;stroke-width:2px;"/>
        </g>
        <g transform="matrix(-0.863522,0.504311,0.504311,0.863522,2104.46,559.399)">
            <path d="M-25.68,-6.949L1.881,-6.95" style="fill:none;fill-rule:nonzero;stroke:black;stroke-width:2px;"/>
        </g>
        <g transform="matrix(-0.863522,0.504311,0.504311,0.863522,2098.2,550.844)">
            <path d="M-25.68,-6.949L1.881,-6.95" style="fill:none;fill-rule:nonzero;stroke:black;stroke-width:2px;"/>
        </g>
        <g transform="matrix(-0.863522,0.504311,0.504311,0.863522,2110.65,569.608)">
            <path d="M-25.68,-6.949L1.881,-6.95" style="fill:none;fill-rule:nonzero;stroke:black;stroke-width:2px;"/>
        </g>
        <g transform="matrix(-0.863522,0.504311,0.504311,0.863522,2115.26,578.093)">
            <path d="M-25.68,-6.949L1.881,-6.95" style="fill:none;fill-rule:nonzero;stroke:black;stroke-width:2px;"/>
        </g>
        <g transform="matrix(-0.863522,0.504311,0.504311,0.863522,2119.8,588.231)">
            <path d="M-25.68,-6.949L1.881,-6.95" style="fill:none;fill-rule:nonzero;stroke:black;stroke-width:2px;"/>
        </g>
        <g transform="matrix(1,0,0,1,2365.98,367.144)">
            <path d="M0,228.286L-237.154,78.716C-243.465,74.736 -245.354,66.394 -241.374,60.084L-209.205,9.078C-204.8,2.092 -195.564,0 -188.578,4.406L47.354,153.204" style="fill:white;fill-rule:nonzero;stroke:black;stroke-width:2px;"/>
        </g>
        <g transform="matrix(0.841195,0.540732,0.540732,-0.841195,2390.97,509.705)">
            <path d="M-2.188,-7.452L25.372,-7.452" style="fill:none;fill-rule:nonzero;stroke:black;stroke-width:2px;"/>
        </g>
        <g transform="matrix(0.841195,0.540732,0.540732,-0.841195,2394.33,505.713)">
            <path d="M-2.188,-7.452L25.372,-7.452" style="fill:none;fill-rule:nonzero;stroke:black;stroke-width:2px;"/>
        </g>
        <g transform="matrix(0.841168,0.540774,0.540774,-0.841168,2384.35,519.641)">
            <path d="M-2.189,-7.452L25.372,-7.452" style="fill:none;fill-rule:nonzero;stroke:black;stroke-width:2px;"/>
        </g>
        <g transform="matrix(0.841184,0.540748,0.540748,-0.841184,2372.76,539.513)">
            <path d="M-2.188,-7.452L25.371,-7.451" style="fill:none;fill-rule:nonzero;stroke:black;stroke-width:2px;"/>
        </g>
        <g transform="matrix(0.841184,0.540748,0.540748,-0.841184,2379.38,531.233)">
            <path d="M-2.188,-7.452L25.371,-7.451" style="fill:none;fill-rule:nonzero;stroke:black;stroke-width:2px;"/>
        </g>
        <g transform="matrix(0.841195,0.540732,0.540732,-0.841195,2366.13,549.448)">
            <path d="M-2.188,-7.452L25.372,-7.452" style="fill:none;fill-rule:nonzero;stroke:black;stroke-width:2px;"/>
        </g>
        <g transform="matrix(0.841195,0.540732,0.540732,-0.841195,2361.17,557.728)">
            <path d="M-2.188,-7.452L25.372,-7.452" style="fill:none;fill-rule:nonzero;stroke:black;stroke-width:2px;"/>
        </g>
        <g transform="matrix(0.841195,0.540732,0.540732,-0.841195,2356.2,567.663)">
            <path d="M-2.188,-7.452L25.372,-7.452" style="fill:none;fill-rule:nonzero;stroke:black;stroke-width:2px;"/>
        </g>
        <g transform="matrix(0.841178,0.540758,0.540758,-0.841178,2387.66,514.673)">
            <path d="M-2.189,-7.452L25.373,-7.452" style="fill:none;fill-rule:nonzero;stroke:black;stroke-width:2px;"/>
        </g>
        <g transform="matrix(0.841178,0.540758,0.540758,-0.841178,2381.04,524.608)">
            <path d="M-2.189,-7.452L25.373,-7.452" style="fill:none;fill-rule:nonzero;stroke:black;stroke-width:2px;"/>
        </g>
        <g transform="matrix(0.841195,0.540732,0.540732,-0.841195,2369.44,544.48)">
            <path d="M-2.188,-7.452L25.372,-7.452" style="fill:none;fill-rule:nonzero;stroke:black;stroke-width:2px;"/>
        </g>
        <g transform="matrix(0.841195,0.540732,0.540732,-0.841195,2376.07,536.2)">
            <path d="M-2.188,-7.452L25.372,-7.452" style="fill:none;fill-rule:nonzero;stroke:black;stroke-width:2px;"/>
        </g>
        <g transform="matrix(0.841184,0.540748,0.540748,-0.841184,2362.82,554.416)">
            <path d="M-2.188,-7.452L25.371,-7.451" style="fill:none;fill-rule:nonzero;stroke:black;stroke-width:2px;"/>
        </g>
        <g transform="matrix(0.841184,0.540748,0.540748,-0.841184,2357.85,562.696)">
            <path d="M-2.188,-7.452L25.371,-7.451" style="fill:none;fill-rule:nonzero;stroke:black;stroke-width:2px;"/>
        </g>
        <g transform="matrix(0.841168,0.540774,0.540774,-0.841168,2352.89,572.631)">
            <path d="M-2.189,-7.452L25.372,-7.452" style="fill:none;fill-rule:nonzero;stroke:black;stroke-width:2px;"/>
        </g>
        <g transform="matrix(0.999976,-0.00689639,-0.00689639,-0.999976,2174.36,370)">
            <path d="M0.147,0.499L145.15,0.499L67.848,-42.968L3.133,-1.521L0.147,0.499Z" style="fill:rgb(233,249,247);fill-rule:nonzero;stroke:black;stroke-width:2px;"/>
        </g>
    </g>
</svg>
